<?xml version="1.0" encoding="UTF-8" standalone="no"?>
<!-- Created with Inkscape (http://www.inkscape.org/) -->

<svg
   width="600"
   height="600"
   viewBox="0 0 158.75 158.75"
   version="1.1"
   id="svg1"
   xml:space="preserve"
   inkscape:version="1.3 (0e150ed6c4, 2023-07-21)"
   sodipodi:docname="moonshine.svg"
   inkscape:export-filename="moonshine16.png"
   inkscape:export-xdpi="2.5599999"
   inkscape:export-ydpi="2.5599999"
   xmlns:inkscape="http://www.inkscape.org/namespaces/inkscape"
   xmlns:sodipodi="http://sodipodi.sourceforge.net/DTD/sodipodi-0.dtd"
   xmlns="http://www.w3.org/2000/svg"
   xmlns:svg="http://www.w3.org/2000/svg"><sodipodi:namedview
     id="namedview1"
     pagecolor="#ffffff"
     bordercolor="#666666"
     borderopacity="1.0"
     inkscape:showpageshadow="2"
     inkscape:pageopacity="0.0"
     inkscape:pagecheckerboard="false"
     inkscape:deskcolor="#d1d1d1"
     inkscape:document-units="px"
     showguides="true"
     inkscape:lockguides="false"
     inkscape:zoom="0.42099996"
     inkscape:cx="220.90263"
     inkscape:cy="396.67462"
     inkscape:window-width="1822"
     inkscape:window-height="1051"
     inkscape:window-x="89"
     inkscape:window-y="-9"
     inkscape:window-maximized="1"
     inkscape:current-layer="layer1" /><defs
     id="defs1" /><g
     inkscape:label="Layer 1"
     inkscape:groupmode="layer"
     id="layer1"><g
       id="g8"
       transform="matrix(1.1999999,0,0,1.1999999,-15.874994,-15.874992)"><path
         id="rect8"
         style="fill:#ff0000;fill-opacity:1;stroke-width:1.41722"
         d="M 13.229164,34.293307 34.293311,13.22916 h 90.163379 l 21.06415,21.06415 v 90.16339 l -21.06415,21.06414 H 34.293308 L 13.229164,124.4567 Z"
         sodipodi:nodetypes="ccccccccc" /><path
         fill="#000000"
         d="m 57.724804,26.60909 c -3.718739,0.552785 -6.683681,2.110636 -9.497863,4.924818 -3.417221,3.417221 -4.924819,6.985201 -4.924819,11.809513 0,5.377098 1.457345,8.543053 6.080643,13.367365 l 3.065448,3.216207 -1.155824,2.110637 c -0.60304,1.155825 -1.557851,3.417221 -2.060383,5.025325 -1.758864,5.276591 -1.758864,5.226338 -1.658358,33.619425 l 0.100506,25.52865 0.753799,1.5076 c 0.804053,1.65836 2.211143,3.06544 3.970007,3.97 l 1.155825,0.60304 h 27.940806 27.940799 l 1.15583,-0.60304 c 1.75886,-0.90456 3.16595,-2.31164 3.97,-3.97 l 0.7538,-1.5076 0.10051,-25.52865 c 0.1005,-27.689542 0.0502,-27.991061 -1.40709,-33.066639 -0.90456,-3.216208 -3.21621,-7.688748 -5.27659,-10.502929 -3.1157,-4.171019 -7.88976,-8.090773 -12.513056,-10.301916 L 94.30917,45.906338 V 40.37848 34.850623 h 4.221271 4.271519 l -0.1005,-4.17102 -0.1005,-4.17102 -21.709407,-0.05025 c -12.06078,0 -22.41295,0.05025 -23.166749,0.15076 z m 11.005462,13.719136 v 5.527858 l -2.562916,1.306585 c -2.261396,1.155824 -4.975071,3.015195 -7.537987,5.176084 l -1.005065,0.804052 -2.261396,-2.361903 c -2.814182,-3.015195 -3.467475,-4.221273 -3.567981,-7.085707 -0.100507,-1.859371 -0.05025,-2.361904 0.552786,-3.567981 0.854305,-1.859371 1.85937,-3.015195 3.366967,-3.869501 1.959877,-1.155824 3.266461,-1.356837 8.34204,-1.356837 l 4.673552,-0.05025 z M 81.444338,96.310349 V 115.40658 H 68.730266 56.016194 V 96.310349 77.214111 h 12.714072 12.714072 z"
         id="path2"
         style="fill:#ffffff;fill-opacity:1;stroke-width:0.502532" /></g></g></svg>
